<?xml version="1.0" encoding="UTF-8"?>
<svg width="24" height="24" viewBox="0 0 24 24" xmlns="http://www.w3.org/2000/svg">
    <path id="Path" fill="none" stroke="#FFFFFF" d="M 18.031 16.617001 L 22.313999 20.899 L 20.899 22.313999 L 16.617001 18.031 C 15.023738 19.308222 13.042001 20.002905 11 20 C 6.032 20 2 15.968 2 11 C 2 6.032 6.032 2 11 2 C 15.968 2 20 6.032 20 11 C 20.002905 13.042001 19.308222 15.023738 18.031 16.617001 Z M 16.025 15.875 C 17.294113 14.569885 18.002867 12.820429 18 11 C 18 7.132 14.867 4 11 4 C 7.132 4 4 7.132 4 11 C 4 14.867 7.132 18 11 18 C 12.820429 18.002867 14.569885 17.294113 15.875 16.025 L 16.025 15.875 Z"/>
</svg>
